{
  "accessors": [
    {
      "bufferView": 2,
      "componentType": 5126,
      "count": 9210,
      "max": [
        112.23895263671875,
        180.1543731689453,
        118.13262939453125
      ],
      "min": [
        -101.68675994873047,
        9.9999998245167e-15,
        -53.811363220214844
      ],
      "type": "VEC3"
    },
    {
      "bufferView": 2,
      "byteOffset": 110520,
      "componentType": 5126,
      "count": 9210,
      "max": [
        0.9982840418815613,
        0.9993413090705872,
        1.0
      ],
      "min": [
        -0.9995084404945374,
        -0.9999899864196777,
        -1.0
      ],
      "type": "VEC3"
    },
    {
      "bufferView": 1,
      "componentType": 5126,
      "count": 9210,
      "max": [
        0.7683489918708801,
        -0.046658992767333984
      ],
      "min": [
        0.03282700106501579,
        -0.6390200257301331
      ],
      "type": "VEC2"
    },
    {
      "bufferView": 0,
      "componentType": 5125,
      "count": 9210,
      "type": "SCALAR"
    }
  ],
  "asset": {
    "extras": {
      "author": "neutralize (https://sketchfab.com/neutralize)",
      "license": "CC-BY-4.0 (http://creativecommons.org/licenses/by/4.0/)",
      "source": "https://sketchfab.com/3d-models/brain-43b2864799224ecc9b7e6723c6ed603f",
      "title": "Brain"
    },
    "generator": "Sketchfab-12.66.0",
    "version": "2.0"
  },
  "bufferViews": [
    {
      "buffer": 0,
      "byteLength": 36840,
      "name": "floatBufferViews",
      "target": 34963
    },
    {
      "buffer": 0,
      "byteLength": 73680,
      "byteOffset": 36840,
      "byteStride": 8,
      "name": "floatBufferViews",
      "target": 34962
    },
    {
      "buffer": 0,
      "byteLength": 221040,
      "byteOffset": 110520,
      "byteStride": 12,
      "name": "floatBufferViews",
      "target": 34962
    }
  ],
  "buffers": [
    {
      "byteLength": 331560,
      "uri": "scene.bin"
    }
  ],
  "materials": [
    {
      "doubleSided": true,
      "name": "Brain_pink",
      "pbrMetallicRoughness": {
        "baseColorFactor": [
          0.184314,
          0.4,
          0.564706,
          1.0
        ],
        "metallicFactor": 0.0,
        "roughnessFactor": 0.858219
      }
    }
  ],
  "meshes": [
    {
      "name": "Object_0",
      "primitives": [
        {
          "attributes": {
            "NORMAL": 1,
            "POSITION": 0,
            "TEXCOORD_0": 2
          },
          "indices": 3,
          "material": 0,
          "mode": 4
        }
      ]
    }
  ],
  "nodes": [
    {
      "children": [
        1
      ],
      "matrix": [
        1.0,
        0.0,
        0.0,
        0.0,
        0.0,
        2.220446049250313e-16,
        -1.0,
        0.0,
        0.0,
        1.0,
        2.220446049250313e-16,
        0.0,
        0.0,
        0.0,
        0.0,
        1.0
      ],
      "name": "Sketchfab_model"
    },
    {
      "children": [
        2
      ],
      "name": "root"
    },
    {
      "children": [
        3
      ],
      "matrix": [
        1.0,
        0.0,
        0.0,
        0.0,
        0.0,
        2.220446049250313e-16,
        1.0,
        0.0,
        0.0,
        -1.0,
        2.220446049250313e-16,
        0.0,
        0.0,
        0.0,
        0.0,
        1.0
      ],
      "name": "GLTF_SceneRootNode"
    },
    {
      "children": [
        4
      ],
      "name": "node-0_0"
    },
    {
      "mesh": 0,
      "name": "Object_4"
    }
  ],
  "scene": 0,
  "scenes": [
    {
      "name": "Sketchfab_Scene",
      "nodes": [
        0
      ]
    }
  ]
}
